# xmcd
# 
# Track frame offsets:
#     150
#     29477
#     53294
#     99716
#     134646
#     169450
#     204697
#     238656
#     270106
# 
# Disc length: 3873
# 
# Revision: 1
# Processed by: cddbd v1.5.2PL0 Copyright (c) Steve Scherf et al.
# Submitted via: Hanso Converter v1.1.0
# 
DISCID=7c0f1f09
DTITLE=Dusko Gojkovic - Summit Octet
DYEAR=2009
DGENRE=Jazz
TTITLE0=Unit Seven
TTITLE1=Tokyo Shuffle Blues
TTITLE2=Quo Vadis Samba
TTITLE3=One For Klook
TTITLE4=Ballade For Miles
TTITLE5=Samba Tzigane
TTITLE6=Summit
TTITLE7=Menina Moca
TTITLE8=Back At The Chicken Shack
EXTD=YEAR: 2009
EXTT0=
EXTT1=
EXTT2=
EXTT3=
EXTT4=
EXTT5=
EXTT6=
EXTT7=
EXTT8=
PLAYORDER=
